<svg width="100" height="60" viewBox="0 0 100 60" fill="none" xmlns="http://www.w3.org/2000/svg">
  <path d="M62.1305 10.5H37.8695V49.5H62.1305V10.5Z" fill="#FF5F00"/>
  <path d="M39.6086 30C39.6086 22.05 43.3478 15.075 49.3913 10.5C45.0868 7.05 39.6086 5.025 34.1305 5.025C21.4348 5.025 11 16.275 11 30C11 43.725 21.4348 54.975 34.1305 54.975C39.6086 54.975 45.0868 52.95 49.3913 49.5C43.3478 45 39.6086 37.95 39.6086 30Z" fill="#EB001B"/>
  <path d="M89.0002 30C89.0002 43.725 78.5654 54.975 65.8697 54.975C60.3915 54.975 54.9133 52.95 50.6089 49.5C56.6524 44.925 60.3915 37.95 60.3915 30C60.3915 22.05 56.6524 15.075 50.6089 10.5C54.9133 7.05 60.3915 5.025 65.8697 5.025C78.5654 5.025 89.0002 16.35 89.0002 30Z" fill="#F79E1B"/>
</svg> 