<svg width="100" height="32" viewBox="0 0 100 32" fill="none" xmlns="http://www.w3.org/2000/svg">
  <path d="M92.4677 5.77648H85.9871C86.8559 9.21123 87.966 12.1512 89.3388 14.7238C88.1938 15.3744 86.9589 15.8319 85.6692 16.0569V21.9156C88.2835 21.4928 90.7982 20.3922 93.0674 18.7059C95.881 16.6092 97.8303 13.8839 98.9754 10.943C99.2744 10.1302 99.5285 9.282 99.7377 8.43383H93.8913C93.5923 9.24665 93.2484 10.0296 92.8148 10.7753C92.6505 10.1294 92.5311 9.46216 92.4677 8.78516V5.77648ZM68.2304 5.77648H61.9676V22.2167H68.2304V5.77648Z" fill="white"/>
  <path d="M81.8116 22.2167V5.77648H77.965C77.1859 5.77648 76.4966 5.84242 75.8522 5.97433C74.0824 6.26975 72.5203 7.05324 71.3753 8.23705V5.77648H65.1125V22.2167H71.3753V14.7557C71.3753 13.8759 71.5847 13.1651 71.9735 12.6132C72.3624 12.0614 72.9618 11.7361 73.7408 11.6372C73.9053 11.6042 74.0845 11.6042 74.249 11.6042H77.3208L77.3657 11.6371C78.3101 11.7361 79.0443 12.0943 79.5988 12.7063C80.1534 13.3183 80.467 14.0949 80.5119 15.0725C80.5119 15.1713 80.5119 15.3689 80.5119 15.6007V22.2167H81.8116H81.8116Z" fill="white"/>
  <path d="M49.8675 17.6114V16.4966C49.8675 15.1836 49.4786 14.0948 48.7009 13.2431C47.9232 12.4021 46.8422 11.9491 45.458 11.9101H45.413C44.2014 11.9101 43.2122 12.2194 42.5006 12.8484C41.7675 13.4823 41.3337 14.4269 41.3337 15.6232C41.3337 16.6553 41.7 17.5153 42.4108 18.2156C43.1217 18.8938 44.1354 19.2451 45.413 19.2451H45.458C45.9229 19.2451 46.3417 19.191 46.7306 19.0813C47.0068 19.0052 47.2717 18.8926 47.5167 18.7466V22.2167H53.7796V16.6702C53.7796 16.113 53.9889 15.6929 54.4227 15.3785C54.8564 15.0641 55.4557 14.9173 56.2122 14.9173H58.6271V5.77648H57.1104H54.8263C53.4422 5.77648 52.2972 6.24688 51.4283 7.18769C50.5594 8.12849 50.1257 9.40015 50.1257 10.9979V11.9099H45.993V16.6922H49.8675V17.6114Z" fill="white"/>
  <path d="M38.7666 5.77648H32.5038V22.2167H38.7666V5.77648Z" fill="white"/>
  <path d="M26.8682 16.5835V14.4976C26.8682 14.1415 26.9811 13.8432 27.1905 13.6127C27.3998 13.3716 27.6987 13.2618 28.052 13.2618H28.507C28.8603 13.2618 29.1593 13.3716 29.3686 13.6127C29.578 13.8432 29.6909 14.1415 29.6909 14.4976V16.5835H26.8682ZM29.6909 17.9503V17.3383H36.1766V13.4812C36.1766 11.6264 35.6671 10.2199 34.6534 9.2461C33.6397 8.27233 32.1679 7.7754 30.2263 7.7754H26.3969C24.4553 7.7754 22.9721 8.27233 21.9584 9.2461C20.9447 10.2199 20.4351 11.6264 20.4351 13.4812V14.5305C20.4351 16.3852 20.9447 17.7811 21.9584 18.7549C22.9721 19.7287 24.4553 20.2256 26.3969 20.2256H32.3098C33.2687 20.2256 33.9133 20.4889 34.2666 21.0359C34.3021 21.0963 34.3323 21.1603 34.3569 21.2272H29.6909V17.9503Z" fill="white"/>
  <path d="M16.5824 16.5835V14.4976C16.5824 14.1415 16.6952 13.8432 16.9046 13.6127C17.114 13.3716 17.4129 13.2618 17.7662 13.2618H18.2212C18.5745 13.2618 18.8735 13.3716 19.0828 13.6127C19.2922 13.8432 19.4051 14.1415 19.4051 14.4976V16.5835H16.5824ZM19.4051 17.9503V17.3383H25.8907V13.4812C25.8907 11.6264 25.3812 10.2199 24.3675 9.2461C23.3538 8.27233 21.8821 7.7754 19.9405 7.7754H16.1111C14.1695 7.7754 12.6862 8.27233 11.6726 9.2461C10.6589 10.2199 10.1493 11.6264 10.1493 13.4812V14.5305C10.1493 16.3852 10.6589 17.7811 11.6726 18.7549C12.6862 19.7287 14.1695 20.2256 16.1111 20.2256H22.024C22.9829 20.2256 23.6275 20.4889 23.9808 21.0359C24.0163 21.0963 24.0464 21.1603 24.071 21.2272H19.4051V17.9503Z" fill="white"/>
  <path d="M1.51766 5.77659H7.64011V13.1019C7.64011 13.1349 7.64011 13.1786 7.64011 13.2445C7.64011 14.1901 7.84944 14.8898 8.26812 15.3119C8.68678 15.7341 9.33003 15.9535 10.2112 15.9535H15.0516V11.1865H11.5896V10.8885C11.5896 10.3366 11.7091 9.90341 11.9413 9.60801C12.1809 9.3126 12.5123 9.15317 12.9422 9.11973C13.0392 9.11973 13.1586 9.11973 13.2557 9.11973H14.9097L14.2216 5.77659H8.09918V22.2168H7.64011V22.2102H1.51766V5.77659Z" fill="white"/>
</svg> 