<svg width="100" height="32" viewBox="0 0 100 32" fill="none" xmlns="http://www.w3.org/2000/svg">
  <path d="M37.4289 31.3261H24.4303L32.5661 0.673828H45.5647L37.4289 31.3261Z" fill="white"/>
  <path d="M67.7713 1.43126C65.5514 0.57699 62.2541 -0.361307 58.2002 -0.361307C47.1371 -0.361307 39.5897 5.49336 39.5409 13.8595C39.4429 19.9045 45.0727 23.1899 49.2612 25.1952C53.5478 27.2493 54.9665 28.6191 54.9665 30.4291C54.9175 33.3153 51.432 34.6364 48.185 34.6364C43.6017 34.6364 41.0891 33.9286 37.2329 32.1675L35.8632 31.5085L34.3952 41.6673C37.0369 42.9397 41.9144 44.0658 46.9901 44.1144C58.7902 44.1144 66.1907 38.3084 66.2881 29.4003C66.3381 24.5598 63.4026 20.8467 57.0235 17.6588C53.1184 15.6047 50.7299 14.2836 50.7789 12.3758C50.7789 10.7122 52.7844 8.95051 57.0726 8.95051C60.5571 8.85329 62.9456 9.56103 64.8038 10.3206L65.7764 10.7608L67.7713 1.43126Z" fill="white"/>
  <path d="M81.9965 20.753C83.0671 17.9156 86.9233 8.51844 86.9233 8.51844C86.8742 8.61567 87.7485 6.20122 88.231 4.77143L88.9631 8.13929C88.9631 8.13929 91.2535 18.2097 91.7847 20.753C90.3181 20.753 84.2185 20.753 81.9965 20.753ZM97.2709 0.673828H87.6506C85.4296 0.673828 83.8147 1.33304 82.8421 3.74749L70.2334 31.3261H82.1101C82.1101 31.3261 84.1629 25.9031 84.5488 24.911H94.7093C94.9543 26.2321 95.9269 31.3261 95.9269 31.3261H107L97.2709 0.673828Z" fill="white"/>
  <path d="M22.8153 0.673828L11.8502 22.0741L10.8298 17.3647C9.0695 11.9599 3.94835 6.09888 0 2.77707L9.90337 31.2774H21.8929L39.2525 0.673828H22.8153Z" fill="white"/>
</svg> 